<svg width="43" height="45" viewBox="0 0 43 45" fill="none" xmlns="http://www.w3.org/2000/svg">
<path d="M16.0312 7.8125C16.4627 7.8125 16.8125 7.46272 16.8125 7.03125C16.8125 6.59978 16.4627 6.25 16.0312 6.25C15.5998 6.25 15.25 6.59978 15.25 7.03125C15.25 7.46272 15.5998 7.8125 16.0312 7.8125Z" fill="#412717"/>
<path d="M13.6875 7.03125C13.6875 7.46272 13.3377 7.8125 12.9062 7.8125C12.4748 7.8125 12.125 7.46272 12.125 7.03125C12.125 6.59978 12.4748 6.25 12.9062 6.25C13.3377 6.25 13.6875 6.59978 13.6875 7.03125Z" fill="#412717"/>
<path d="M9 6.25C9 4.52411 10.3991 3.125 12.125 3.125H30.875C32.6009 3.125 34 4.52411 34 6.25V7.8125C34 9.53839 32.6009 10.9375 30.875 10.9375H22.2812V15.625C23.5757 15.625 24.625 16.6743 24.625 17.9688H33.2188C33.6502 17.9688 34 18.3185 34 18.75C34 19.1815 33.6502 19.5312 33.2188 19.5312H24.625C24.625 20.8257 23.5757 21.875 22.2812 21.875H20.7188C19.4243 21.875 18.375 20.8257 18.375 19.5312H9.78125C9.34978 19.5312 9 19.1815 9 18.75C9 18.3185 9.34978 17.9688 9.78125 17.9688H18.375C18.375 16.6743 19.4243 15.625 20.7188 15.625V10.9375H12.125C10.3991 10.9375 9 9.53839 9 7.8125V6.25ZM10.5625 6.25V7.8125C10.5625 8.67545 11.2621 9.375 12.125 9.375H30.875C31.7379 9.375 32.4375 8.67545 32.4375 7.8125V6.25C32.4375 5.38706 31.7379 4.6875 30.875 4.6875H12.125C11.2621 4.6875 10.5625 5.38706 10.5625 6.25ZM19.9375 17.9688V19.5312C19.9375 19.9627 20.2873 20.3125 20.7188 20.3125H22.2812C22.7127 20.3125 23.0625 19.9627 23.0625 19.5312V17.9688C23.0625 17.5373 22.7127 17.1875 22.2812 17.1875H20.7188C20.2873 17.1875 19.9375 17.5373 19.9375 17.9688Z" fill="#412717"/>
<path d="M6.805 35.68C6.853 35.5787 6.88233 35.4907 6.893 35.416C6.90367 35.3413 6.909 35.256 6.909 35.16C6.909 35.0587 6.909 34.904 6.909 34.696C6.909 34.488 6.909 34.248 6.909 33.976C6.909 33.6987 6.909 33.408 6.909 33.104C6.909 32.8 6.909 32.5013 6.909 32.208C6.909 31.9147 6.909 31.648 6.909 31.408C6.909 31.168 6.909 30.9733 6.909 30.824C6.909 30.7227 6.90367 30.616 6.893 30.504C6.88767 30.392 6.877 30.2853 6.861 30.184C6.85033 30.0773 6.837 29.9867 6.821 29.912H8.077C8.05567 30.0667 8.037 30.2187 8.021 30.368C8.005 30.5173 7.997 30.6693 7.997 30.824C7.997 30.952 7.997 31.112 7.997 31.304C7.997 31.4907 7.997 31.6987 7.997 31.928C7.997 32.1573 7.997 32.3947 7.997 32.64C7.997 32.8853 7.997 33.128 7.997 33.368C7.997 33.608 7.997 33.8347 7.997 34.048C7.997 34.2613 7.997 34.448 7.997 34.608C7.997 34.768 7.997 34.8933 7.997 34.984C8.32233 34.888 8.669 34.7573 9.037 34.592C9.41033 34.4213 9.78367 34.2213 10.157 33.992C10.5357 33.7573 10.8903 33.5013 11.221 33.224C11.557 32.9467 11.853 32.6507 12.109 32.336L12.677 33.24C12.133 33.896 11.4583 34.464 10.653 34.944C9.853 35.4187 8.981 35.8107 8.037 36.12C7.98367 36.1413 7.91433 36.168 7.829 36.2C7.74367 36.232 7.65567 36.2773 7.565 36.336L6.805 35.68ZM15.671 34.936C15.671 34.824 15.671 34.664 15.671 34.456C15.671 34.2427 15.671 34.0027 15.671 33.736C15.671 33.464 15.671 33.1813 15.671 32.888C15.671 32.5893 15.671 32.2987 15.671 32.016C15.671 31.728 15.671 31.4613 15.671 31.216C15.671 30.9707 15.671 30.7653 15.671 30.6C15.671 30.5147 15.6683 30.416 15.663 30.304C15.663 30.192 15.6577 30.08 15.647 29.968C15.6363 29.856 15.623 29.76 15.607 29.68H16.799C16.783 29.8027 16.767 29.9547 16.751 30.136C16.735 30.312 16.727 30.4667 16.727 30.6C16.727 30.76 16.727 30.952 16.727 31.176C16.727 31.3947 16.727 31.632 16.727 31.888C16.727 32.1387 16.727 32.3947 16.727 32.656C16.727 32.9173 16.727 33.1733 16.727 33.424C16.727 33.6747 16.727 33.904 16.727 34.112C16.727 34.32 16.727 34.5013 16.727 34.656C16.727 34.816 16.751 34.9467 16.799 35.048C16.847 35.1493 16.943 35.2213 17.087 35.264C17.2363 35.3067 17.4577 35.328 17.751 35.328C18.0337 35.328 18.3163 35.3173 18.599 35.296C18.887 35.2693 19.1723 35.2373 19.455 35.2C19.7377 35.1573 20.0097 35.1093 20.271 35.056L20.239 36.144C20.0203 36.176 19.7723 36.2053 19.495 36.232C19.2177 36.2587 18.9297 36.28 18.631 36.296C18.3377 36.312 18.047 36.32 17.759 36.32C17.3057 36.32 16.9403 36.2907 16.663 36.232C16.3857 36.1787 16.175 36.096 16.031 35.984C15.8923 35.872 15.7963 35.728 15.743 35.552C15.695 35.376 15.671 35.1707 15.671 34.936ZM20.711 31.416C20.6737 31.4747 20.6283 31.5467 20.575 31.632C20.527 31.712 20.4843 31.7867 20.447 31.856C20.3617 32.0213 20.2523 32.208 20.119 32.416C19.991 32.624 19.8523 32.8373 19.703 33.056C19.5537 33.2747 19.399 33.4827 19.239 33.68C19.0843 33.8773 18.935 34.0453 18.791 34.184L17.911 33.664C18.087 33.5093 18.2577 33.3333 18.423 33.136C18.5937 32.9333 18.7457 32.736 18.879 32.544C19.0123 32.3467 19.1163 32.1813 19.191 32.048C19.1163 32.0587 18.9857 32.0853 18.799 32.128C18.6177 32.1653 18.3937 32.2107 18.127 32.264C17.8603 32.3173 17.5697 32.376 17.255 32.44C16.9403 32.4987 16.623 32.56 16.303 32.624C15.983 32.688 15.6737 32.752 15.375 32.816C15.0763 32.8747 14.807 32.9307 14.567 32.984C14.327 33.032 14.135 33.072 13.991 33.104L13.799 32.056C13.9537 32.0347 14.1563 32.0053 14.407 31.968C14.6577 31.9253 14.9377 31.8773 15.247 31.824C15.5563 31.7653 15.879 31.704 16.215 31.64C16.551 31.576 16.8843 31.512 17.215 31.448C17.5457 31.384 17.855 31.3253 18.143 31.272C18.431 31.2133 18.6817 31.1627 18.895 31.12C19.1083 31.072 19.2683 31.0347 19.375 31.008C19.487 30.9813 19.591 30.9547 19.687 30.928C19.783 30.896 19.8683 30.8613 19.943 30.824L20.711 31.416ZM22.841 30.32C22.9903 30.336 23.1583 30.3493 23.345 30.36C23.5317 30.3653 23.6917 30.368 23.825 30.368H27.857C27.9743 30.368 28.1023 30.368 28.241 30.368C28.385 30.3627 28.4917 30.3573 28.561 30.352C28.5557 30.4427 28.5503 30.56 28.545 30.704C28.5397 30.8427 28.537 30.9707 28.537 31.088V35.232C28.537 35.3707 28.5397 35.5333 28.545 35.72C28.5557 35.9067 28.5637 36.0587 28.569 36.176H27.409C27.4143 36.0587 27.417 35.9307 27.417 35.792C27.4223 35.648 27.425 35.504 27.425 35.36V31.4H23.833C23.6623 31.4 23.481 31.4027 23.289 31.408C23.1023 31.4133 22.953 31.4213 22.841 31.432V30.32ZM22.737 34.664C22.8757 34.6747 23.0303 34.6853 23.201 34.696C23.377 34.7067 23.5557 34.712 23.737 34.712H28.057V35.76H23.769C23.6143 35.76 23.4357 35.7653 23.233 35.776C23.0357 35.7867 22.8703 35.7973 22.737 35.808V34.664ZM31.683 29.92C31.8217 30.016 31.9843 30.1333 32.171 30.272C32.3577 30.4107 32.5497 30.5627 32.747 30.728C32.9497 30.888 33.139 31.0453 33.315 31.2C33.491 31.3547 33.635 31.4933 33.747 31.616L32.931 32.448C32.8297 32.336 32.6963 32.2027 32.531 32.048C32.3657 31.8933 32.187 31.7333 31.995 31.568C31.803 31.4027 31.6137 31.2453 31.427 31.096C31.2403 30.9467 31.075 30.8213 30.931 30.72L31.683 29.92ZM30.683 35.248C31.099 35.1893 31.491 35.1067 31.859 35C32.227 34.8933 32.5683 34.7707 32.883 34.632C33.1977 34.4933 33.4857 34.3493 33.747 34.2C34.2003 33.928 34.6163 33.6187 34.995 33.272C35.3737 32.9253 35.7043 32.5653 35.987 32.192C36.2697 31.8133 36.4937 31.4453 36.659 31.088L37.283 32.216C37.0803 32.5733 36.8297 32.9307 36.531 33.288C36.2377 33.6453 35.9043 33.9867 35.531 34.312C35.1577 34.632 34.755 34.92 34.323 35.176C34.051 35.3413 33.7577 35.4987 33.443 35.648C33.1283 35.792 32.795 35.92 32.443 36.032C32.0963 36.1493 31.7337 36.24 31.355 36.304L30.683 35.248ZM15.543 40.32V43.272H14.623V41.208H13.719V40.32H15.543ZM15.543 42.888C15.6977 43.1547 15.9163 43.352 16.199 43.48C16.4817 43.6027 16.8257 43.672 17.231 43.688C17.471 43.6987 17.759 43.7067 18.095 43.712C18.4363 43.712 18.791 43.7093 19.159 43.704C19.5323 43.6987 19.895 43.6907 20.247 43.68C20.6043 43.664 20.9243 43.6427 21.207 43.616C21.1697 43.6853 21.1297 43.7787 21.087 43.896C21.0497 44.008 21.0123 44.1227 20.975 44.24C20.943 44.3573 20.919 44.4613 20.903 44.552C20.6577 44.568 20.375 44.5787 20.055 44.584C19.735 44.5893 19.4043 44.592 19.063 44.592C18.7217 44.5973 18.391 44.5973 18.071 44.592C17.751 44.592 17.4683 44.5867 17.223 44.576C16.743 44.5547 16.335 44.4773 15.999 44.344C15.663 44.2107 15.375 43.9893 15.135 43.68C14.9803 43.84 14.815 43.9973 14.639 44.152C14.4683 44.312 14.2817 44.4773 14.079 44.648L13.623 43.696C13.7937 43.584 13.9723 43.4587 14.159 43.32C14.351 43.1813 14.535 43.0373 14.711 42.888H15.543ZM13.751 37.952L14.479 37.408C14.6337 37.5253 14.7937 37.6587 14.959 37.808C15.1243 37.9573 15.2763 38.1067 15.415 38.256C15.5537 38.4053 15.6657 38.5467 15.751 38.68L14.959 39.288C14.8843 39.1547 14.7803 39.0107 14.647 38.856C14.519 38.696 14.375 38.5387 14.215 38.384C14.055 38.224 13.9003 38.08 13.751 37.952ZM15.887 37.776H20.927V38.552H15.887V37.776ZM15.791 41.968H21.031V42.752H15.791V41.968ZM17.895 37.2H18.831V43.504H17.895V37.2ZM17.079 40.56V40.96H19.663V40.56H17.079ZM17.079 39.544V39.936H19.663V39.544H17.079ZM16.207 38.888H20.583V41.624H16.207V38.888ZM25.305 37.192L26.129 37.4C25.9637 37.8533 25.7477 38.2827 25.481 38.688C25.2197 39.0933 24.9343 39.432 24.625 39.704C24.5877 39.6453 24.5317 39.576 24.457 39.496C24.3823 39.4107 24.3077 39.328 24.233 39.248C24.1583 39.168 24.0917 39.104 24.033 39.056C24.3103 38.8373 24.561 38.5653 24.785 38.24C25.009 37.9093 25.1823 37.56 25.305 37.192ZM27.081 37.216L28.009 37.424C27.8863 37.6427 27.7663 37.8533 27.649 38.056C27.537 38.2587 27.4303 38.432 27.329 38.576L26.593 38.376C26.6837 38.2107 26.7743 38.0187 26.865 37.8C26.9557 37.5813 27.0277 37.3867 27.081 37.216ZM25.337 39.872H28.873V40.416H25.337V39.872ZM24.465 41.752H27.361V42.512H24.465V41.752ZM25.337 38.984H28.873V39.536H25.337V38.984ZM26.649 38.32H27.505V41.032H26.649V38.32ZM27.417 42.4H28.721V43.08H27.217L27.417 42.4ZM28.393 42.4H29.257C29.257 42.4 29.2543 42.44 29.249 42.52C29.2437 42.6 29.2357 42.672 29.225 42.736C29.1823 43.2427 29.129 43.6293 29.065 43.896C29.001 44.1573 28.9183 44.3413 28.817 44.448C28.7317 44.528 28.6383 44.5867 28.537 44.624C28.441 44.6613 28.3263 44.6853 28.193 44.696C28.0863 44.7067 27.9423 44.712 27.761 44.712C27.5797 44.712 27.3903 44.7093 27.193 44.704C27.1877 44.5813 27.161 44.4453 27.113 44.296C27.065 44.152 27.0037 44.024 26.929 43.912C27.1103 43.9333 27.2837 43.9467 27.449 43.952C27.6197 43.9573 27.745 43.96 27.825 43.96C27.953 43.96 28.0463 43.936 28.105 43.888C28.1637 43.824 28.217 43.688 28.265 43.48C28.313 43.272 28.3557 42.9467 28.393 42.504V42.4ZM25.473 42.032H26.425C26.361 42.7467 26.185 43.3173 25.897 43.744C25.6143 44.1707 25.185 44.504 24.609 44.744C24.577 44.6853 24.5237 44.6107 24.449 44.52C24.3797 44.4293 24.305 44.3413 24.225 44.256C24.145 44.1707 24.073 44.1013 24.009 44.048C24.4997 43.8827 24.8597 43.64 25.089 43.32C25.3237 42.9947 25.4517 42.5653 25.473 42.032ZM25.577 38H29.097V38.664H24.977L25.577 38ZM24.913 38.752L25.729 38.04V41.096H24.913V38.752ZM24.913 40.768H29.177V41.44H24.913V40.768ZM21.753 41.224C22.0783 41.1493 22.4703 41.0507 22.929 40.928C23.3877 40.8053 23.849 40.6773 24.313 40.544L24.441 41.408C24.0197 41.536 23.5903 41.6667 23.153 41.8C22.721 41.928 22.3237 42.0427 21.961 42.144L21.753 41.224ZM21.881 38.72H24.329V39.6H21.881V38.72ZM22.721 37.208H23.601V43.704C23.601 43.9227 23.577 44.096 23.529 44.224C23.4863 44.3573 23.4037 44.4613 23.281 44.536C23.1637 44.6107 23.0143 44.6613 22.833 44.688C22.657 44.7147 22.4357 44.7253 22.169 44.72C22.1583 44.6027 22.129 44.456 22.081 44.28C22.033 44.1093 21.9797 43.96 21.921 43.832C22.0703 43.8373 22.2063 43.8427 22.329 43.848C22.457 43.848 22.545 43.8453 22.593 43.84C22.641 43.84 22.673 43.832 22.689 43.816C22.7103 43.7947 22.721 43.7573 22.721 43.704V37.208ZM27.137 41.752H27.977C27.9237 42.0293 27.8623 42.3173 27.793 42.616C27.729 42.9147 27.6677 43.1733 27.609 43.392L26.793 43.272C26.857 43.0587 26.921 42.816 26.985 42.544C27.049 42.2667 27.0997 42.0027 27.137 41.752Z" fill="black"/>
</svg>
