<svg width="43" height="36" viewBox="0 0 43 36" fill="none" xmlns="http://www.w3.org/2000/svg">
<g clip-path="url(#clip0_2396_2548)">
<path d="M10.3574 12L21.5003 0.857178L32.6431 12" stroke="#412717" stroke-linecap="round" stroke-linejoin="round"/>
<path d="M13.7852 14.5714V23.1428H29.2137V14.5714" stroke="#412717" stroke-linecap="round" stroke-linejoin="round"/>
</g>
<path d="M14.1631 28.592C14.1578 28.6293 14.1471 28.6907 14.1311 28.776C14.1204 28.8613 14.1098 28.952 14.0991 29.048C14.0938 29.144 14.0911 29.224 14.0911 29.288C14.0911 29.448 14.0911 29.624 14.0911 29.816C14.0911 30.008 14.0911 30.2 14.0911 30.392C14.0911 30.5787 14.0911 30.7493 14.0911 30.904C14.0911 31.0107 14.0911 31.16 14.0911 31.352C14.0911 31.544 14.0911 31.76 14.0911 32C14.0911 32.24 14.0911 32.4907 14.0911 32.752C14.0911 33.008 14.0911 33.2587 14.0911 33.504C14.0911 33.744 14.0911 33.9627 14.0911 34.16C14.0911 34.352 14.0911 34.504 14.0911 34.616C14.0911 34.8453 14.0218 35.0267 13.8831 35.16C13.7498 35.2987 13.5391 35.368 13.2511 35.368C13.1071 35.368 12.9604 35.3653 12.8111 35.36C12.6618 35.3547 12.5151 35.3467 12.3711 35.336C12.2271 35.3253 12.0884 35.312 11.9551 35.296L11.8511 34.304C12.0271 34.336 12.1951 34.36 12.3551 34.376C12.5151 34.392 12.6458 34.4 12.7471 34.4C12.8484 34.4 12.9204 34.3787 12.9631 34.336C13.0058 34.288 13.0298 34.2133 13.0351 34.112C13.0351 34.064 13.0351 33.96 13.0351 33.8C13.0404 33.64 13.0431 33.4507 13.0431 33.232C13.0431 33.0133 13.0431 32.7813 13.0431 32.536C13.0431 32.2907 13.0431 32.056 13.0431 31.832C13.0431 31.608 13.0431 31.4133 13.0431 31.248C13.0431 31.0827 13.0431 30.968 13.0431 30.904C13.0431 30.808 13.0431 30.664 13.0431 30.472C13.0431 30.2747 13.0431 30.0667 13.0431 29.848C13.0431 29.6293 13.0431 29.4427 13.0431 29.288C13.0431 29.1813 13.0351 29.056 13.0191 28.912C13.0031 28.768 12.9898 28.6613 12.9791 28.592H14.1631ZM10.2431 29.872C10.3604 29.8827 10.4858 29.896 10.6191 29.912C10.7578 29.9227 10.8884 29.928 11.0111 29.928C11.0804 29.928 11.2111 29.928 11.4031 29.928C11.6004 29.928 11.8324 29.928 12.0991 29.928C12.3711 29.928 12.6644 29.928 12.9791 29.928C13.2938 29.928 13.6084 29.928 13.9231 29.928C14.2378 29.928 14.5338 29.928 14.8111 29.928C15.0884 29.928 15.3258 29.928 15.5231 29.928C15.7258 29.928 15.8671 29.928 15.9471 29.928C16.0591 29.928 16.1924 29.9227 16.3471 29.912C16.5018 29.9013 16.6324 29.888 16.7391 29.872V30.92C16.6164 30.9093 16.4831 30.904 16.3391 30.904C16.1951 30.8987 16.0671 30.896 15.9551 30.896C15.8751 30.896 15.7364 30.896 15.5391 30.896C15.3418 30.896 15.1044 30.896 14.8271 30.896C14.5498 30.896 14.2538 30.896 13.9391 30.896C13.6244 30.896 13.3098 30.896 12.9951 30.896C12.6858 30.896 12.3924 30.896 12.1151 30.896C11.8431 30.896 11.6111 30.896 11.4191 30.896C11.2271 30.896 11.0911 30.896 11.0111 30.896C10.8938 30.896 10.7631 30.8987 10.6191 30.904C10.4804 30.9093 10.3551 30.9173 10.2431 30.928V29.872ZM12.2831 32.04C12.1871 32.216 12.0751 32.408 11.9471 32.616C11.8191 32.824 11.6804 33.032 11.5311 33.24C11.3871 33.448 11.2458 33.6427 11.1071 33.824C10.9684 34 10.8458 34.1467 10.7391 34.264L9.86709 33.672C10.0004 33.5493 10.1364 33.4053 10.2751 33.24C10.4191 33.0693 10.5578 32.8907 10.6911 32.704C10.8298 32.5173 10.9551 32.3307 11.0671 32.144C11.1844 31.9573 11.2858 31.7787 11.3711 31.608L12.2831 32.04ZM15.7151 31.584C15.8164 31.712 15.9284 31.864 16.0511 32.04C16.1791 32.216 16.3071 32.4053 16.4351 32.608C16.5631 32.8053 16.6831 33 16.7951 33.192C16.9071 33.3787 17.0031 33.544 17.0831 33.688L16.1471 34.2C16.0618 34.0293 15.9631 33.8453 15.8511 33.648C15.7444 33.4507 15.6324 33.2533 15.5151 33.056C15.3978 32.8587 15.2804 32.6747 15.1631 32.504C15.0458 32.328 14.9391 32.1787 14.8431 32.056L15.7151 31.584ZM18.3571 31.296C18.4531 31.3013 18.5758 31.3093 18.7251 31.32C18.8744 31.3253 19.0291 31.3307 19.1891 31.336C19.3544 31.3413 19.5064 31.344 19.6451 31.344C19.7784 31.344 19.9438 31.344 20.1411 31.344C20.3384 31.344 20.5518 31.344 20.7811 31.344C21.0158 31.344 21.2558 31.344 21.5011 31.344C21.7518 31.344 21.9998 31.344 22.2451 31.344C22.4904 31.344 22.7224 31.344 22.9411 31.344C23.1598 31.344 23.3544 31.344 23.5251 31.344C23.7011 31.344 23.8398 31.344 23.9411 31.344C24.1278 31.344 24.3038 31.3387 24.4691 31.328C24.6344 31.312 24.7704 31.3013 24.8771 31.296V32.552C24.7864 32.5467 24.6504 32.5387 24.4691 32.528C24.2878 32.5173 24.1118 32.512 23.9411 32.512C23.8398 32.512 23.7011 32.512 23.5251 32.512C23.3491 32.512 23.1518 32.512 22.9331 32.512C22.7144 32.512 22.4824 32.512 22.2371 32.512C21.9971 32.512 21.7518 32.512 21.5011 32.512C21.2504 32.512 21.0078 32.512 20.7731 32.512C20.5438 32.512 20.3304 32.512 20.1331 32.512C19.9411 32.512 19.7784 32.512 19.6451 32.512C19.4158 32.512 19.1811 32.5173 18.9411 32.528C18.7011 32.5333 18.5064 32.5413 18.3571 32.552V31.296ZM29.9889 28.968C29.9356 29.0853 29.8796 29.2187 29.8209 29.368C29.7622 29.512 29.7036 29.6747 29.6449 29.856C29.5969 30.0053 29.5356 30.1973 29.4609 30.432C29.3862 30.6613 29.3036 30.9147 29.2129 31.192C29.1222 31.464 29.0262 31.7467 28.9249 32.04C28.8289 32.328 28.7356 32.608 28.6449 32.88C28.5542 33.152 28.4689 33.4 28.3889 33.624C28.3089 33.8427 28.2396 34.0213 28.1809 34.16L26.9969 34.2C27.0716 34.0293 27.1542 33.8213 27.2449 33.576C27.3356 33.3307 27.4316 33.064 27.5329 32.776C27.6342 32.4827 27.7329 32.184 27.8289 31.88C27.9302 31.576 28.0236 31.2827 28.1089 31C28.1996 30.7173 28.2796 30.456 28.3489 30.216C28.4236 29.976 28.4822 29.7813 28.5249 29.632C28.5782 29.424 28.6182 29.2533 28.6449 29.12C28.6769 28.9813 28.7009 28.8427 28.7169 28.704L29.9889 28.968ZM31.4209 31.552C31.5649 31.7653 31.7196 32.016 31.8849 32.304C32.0502 32.592 32.2129 32.8933 32.3729 33.208C32.5382 33.5173 32.6902 33.816 32.8289 34.104C32.9676 34.392 33.0822 34.6507 33.1729 34.88L32.0929 35.36C32.0022 35.1147 31.8902 34.8373 31.7569 34.528C31.6289 34.2187 31.4876 33.904 31.3329 33.584C31.1836 33.264 31.0289 32.9627 30.8689 32.68C30.7142 32.392 30.5649 32.152 30.4209 31.96L31.4209 31.552ZM26.9249 33.848C27.1062 33.8373 27.3249 33.824 27.5809 33.808C27.8422 33.7867 28.1222 33.7627 28.4209 33.736C28.7196 33.704 29.0236 33.672 29.3329 33.64C29.6476 33.608 29.9542 33.576 30.2529 33.544C30.5569 33.5067 30.8396 33.472 31.1009 33.44C31.3622 33.408 31.5836 33.3787 31.7649 33.352L32.0049 34.376C31.8076 34.4027 31.5702 34.432 31.2929 34.464C31.0209 34.496 30.7276 34.5307 30.4129 34.568C30.0982 34.6 29.7782 34.6347 29.4529 34.672C29.1276 34.7093 28.8102 34.744 28.5009 34.776C28.1916 34.808 27.9062 34.8373 27.6449 34.864C27.3836 34.8853 27.1622 34.9067 26.9809 34.928C26.8796 34.9387 26.7596 34.9547 26.6209 34.976C26.4876 34.992 26.3569 35.008 26.2289 35.024L26.0449 33.856C26.1782 33.856 26.3249 33.856 26.4849 33.856C26.6502 33.856 26.7969 33.8533 26.9249 33.848Z" fill="black"/>
<defs>
<clipPath id="clip0_2396_2548">
<rect width="24" height="24" fill="white" transform="translate(9.5)"/>
</clipPath>
</defs>
</svg>
