<svg width="43" height="36" viewBox="0 0 43 36" fill="none" xmlns="http://www.w3.org/2000/svg">
<path d="M25.7849 2.57141H28.3563C28.811 2.57141 29.247 2.75202 29.5685 3.07351C29.89 3.395 30.0706 3.83104 30.0706 4.2857V21.4286C30.0706 21.8832 29.89 22.3192 29.5685 22.6407C29.247 22.9622 28.811 23.1428 28.3563 23.1428H14.642C14.1874 23.1428 13.7513 22.9622 13.4298 22.6407C13.1083 22.3192 12.9277 21.8832 12.9277 21.4286V4.2857C12.9277 3.83104 13.1083 3.395 13.4298 3.07351C13.7513 2.75202 14.1874 2.57141 14.642 2.57141H17.2134" stroke="#412717" stroke-linecap="round" stroke-linejoin="round"/>
<path d="M24.07 0.857178H18.9272C17.9804 0.857178 17.2129 1.62469 17.2129 2.57146V3.42861C17.2129 4.37538 17.9804 5.14289 18.9272 5.14289H24.07C25.0168 5.14289 25.7843 4.37538 25.7843 3.42861V2.57146C25.7843 1.62469 25.0168 0.857178 24.07 0.857178Z" stroke="#412717" stroke-linecap="round" stroke-linejoin="round"/>
<path d="M17.2129 9.42859H25.7843" stroke="#412717" stroke-linecap="round" stroke-linejoin="round"/>
<path d="M17.2129 13.7144H25.7843" stroke="#412717" stroke-linecap="round" stroke-linejoin="round"/>
<path d="M17.2129 18H25.7843" stroke="#412717" stroke-linecap="round" stroke-linejoin="round"/>
<path d="M16.4374 30.196V29.1818H21.2158V30.196H19.4345V35H18.2186V30.196H16.4374ZM22.1727 35V29.1818H24.4682C24.9095 29.1818 25.2854 29.2661 25.596 29.4347C25.9066 29.6013 26.1434 29.8333 26.3062 30.1307C26.471 30.4261 26.5534 30.767 26.5534 31.1534C26.5534 31.5398 26.4701 31.8807 26.3034 32.1761C26.1367 32.4716 25.8953 32.7017 25.579 32.8665C25.2646 33.0312 24.8839 33.1136 24.4369 33.1136H22.9739V32.1278H24.2381C24.4748 32.1278 24.6699 32.0871 24.8233 32.0057C24.9786 31.9223 25.0941 31.8078 25.1699 31.6619C25.2475 31.5142 25.2864 31.3447 25.2864 31.1534C25.2864 30.9602 25.2475 30.7917 25.1699 30.6477C25.0941 30.5019 24.9786 30.3892 24.8233 30.3097C24.668 30.2282 24.471 30.1875 24.2324 30.1875H23.4028V35H22.1727Z" fill="black"/>
</svg>
