<svg width="43" height="44" viewBox="0 0 43 44" fill="none" xmlns="http://www.w3.org/2000/svg">
<path d="M21.5011 12C24.5781 12 27.0725 9.50562 27.0725 6.42861C27.0725 3.35159 24.5781 0.857178 21.5011 0.857178C18.4241 0.857178 15.9297 3.35159 15.9297 6.42861C15.9297 9.50562 18.4241 12 21.5011 12Z" stroke="#412717" stroke-linecap="round" stroke-linejoin="round"/>
<path d="M32.0948 23.1429C31.3751 20.8987 29.9613 18.941 28.0573 17.552C26.1533 16.1631 23.8573 15.4147 21.5005 15.4147C19.1437 15.4147 16.8478 16.1631 14.9438 17.552C13.0397 18.941 11.6259 20.8987 10.9062 23.1429H32.0948Z" stroke="#412717" stroke-linecap="round" stroke-linejoin="round"/>
<path d="M11.7711 29.808C11.7551 29.8613 11.7391 29.928 11.7231 30.008C11.7071 30.0827 11.6965 30.136 11.6911 30.168C11.6698 30.328 11.6405 30.536 11.6031 30.792C11.5658 31.048 11.5231 31.3227 11.4751 31.616C11.4325 31.9093 11.3871 32.2027 11.3391 32.496C11.2911 32.784 11.2485 33.0507 11.2111 33.296C11.1738 33.536 11.1418 33.7307 11.1151 33.88H9.93913C9.96046 33.7573 9.98713 33.6053 10.0191 33.424C10.0511 33.2373 10.0858 33.0347 10.1231 32.816C10.1605 32.5973 10.1951 32.3733 10.2271 32.144C10.2645 31.9147 10.2965 31.696 10.3231 31.488C10.3551 31.2747 10.3818 31.0853 10.4031 30.92C10.4245 30.7547 10.4351 30.624 10.4351 30.528C10.3125 30.528 10.1551 30.528 9.96313 30.528C9.77113 30.528 9.56313 30.528 9.33913 30.528C9.12046 30.528 8.90179 30.528 8.68313 30.528C8.46446 30.528 8.26713 30.528 8.09113 30.528C7.91513 30.528 7.77646 30.528 7.67513 30.528C7.51513 30.528 7.36046 30.5307 7.21113 30.536C7.06179 30.5413 6.91513 30.5493 6.77113 30.56V29.432C6.90446 29.448 7.05379 29.464 7.21913 29.48C7.38446 29.4907 7.53379 29.496 7.66713 29.496C7.75246 29.496 7.86179 29.496 7.99513 29.496C8.12846 29.496 8.27513 29.496 8.43513 29.496C8.60046 29.496 8.76846 29.496 8.93913 29.496C9.10979 29.496 9.27513 29.496 9.43513 29.496C9.60046 29.496 9.74713 29.496 9.87513 29.496C10.0085 29.496 10.1151 29.496 10.1951 29.496C10.2645 29.496 10.3471 29.4907 10.4431 29.48C10.5445 29.4693 10.6405 29.456 10.7311 29.44C10.8218 29.424 10.8911 29.408 10.9391 29.392L11.7711 29.808ZM5.89113 33.552C6.01913 33.568 6.15246 33.584 6.29113 33.6C6.42979 33.6107 6.56046 33.616 6.68313 33.616H12.0191C12.1631 33.616 12.2965 33.608 12.4191 33.592C12.5471 33.576 12.6618 33.5627 12.7631 33.552V34.712C12.6511 34.696 12.5231 34.6853 12.3791 34.68C12.2351 34.6747 12.1151 34.672 12.0191 34.672H6.68313C6.56046 34.672 6.42979 34.6747 6.29113 34.68C6.15779 34.6853 6.02446 34.696 5.89113 34.712V33.552ZM14.2291 31.296C14.3251 31.3013 14.4478 31.3093 14.5971 31.32C14.7465 31.3253 14.9011 31.3307 15.0611 31.336C15.2265 31.3413 15.3785 31.344 15.5171 31.344C15.6505 31.344 15.8158 31.344 16.0131 31.344C16.2105 31.344 16.4238 31.344 16.6531 31.344C16.8878 31.344 17.1278 31.344 17.3731 31.344C17.6238 31.344 17.8718 31.344 18.1171 31.344C18.3625 31.344 18.5945 31.344 18.8131 31.344C19.0318 31.344 19.2265 31.344 19.3971 31.344C19.5731 31.344 19.7118 31.344 19.8131 31.344C19.9998 31.344 20.1758 31.3387 20.3411 31.328C20.5065 31.312 20.6425 31.3013 20.7491 31.296V32.552C20.6585 32.5467 20.5225 32.5387 20.3411 32.528C20.1598 32.5173 19.9838 32.512 19.8131 32.512C19.7118 32.512 19.5731 32.512 19.3971 32.512C19.2211 32.512 19.0238 32.512 18.8051 32.512C18.5865 32.512 18.3545 32.512 18.1091 32.512C17.8691 32.512 17.6238 32.512 17.3731 32.512C17.1225 32.512 16.8798 32.512 16.6451 32.512C16.4158 32.512 16.2025 32.512 16.0051 32.512C15.8131 32.512 15.6505 32.512 15.5171 32.512C15.2878 32.512 15.0531 32.5173 14.8131 32.528C14.5731 32.5333 14.3785 32.5413 14.2291 32.552V31.296ZM28.0429 28.776C28.0962 28.8773 28.1469 28.9947 28.1949 29.128C28.2482 29.2613 28.2989 29.392 28.3469 29.52C28.3949 29.648 28.4349 29.7653 28.4669 29.872L27.9149 30.048C27.8775 29.936 27.8349 29.816 27.7869 29.688C27.7442 29.56 27.6989 29.432 27.6509 29.304C27.6082 29.176 27.5602 29.0587 27.5069 28.952L28.0429 28.776ZM28.8669 28.52C28.9202 28.6267 28.9735 28.7467 29.0269 28.88C29.0802 29.008 29.1309 29.136 29.1789 29.264C29.2322 29.392 29.2749 29.5067 29.3069 29.608L28.7549 29.784C28.7015 29.6133 28.6375 29.4293 28.5629 29.232C28.4882 29.0347 28.4082 28.856 28.3229 28.696L28.8669 28.52ZM27.3549 31.584C27.3549 32.08 27.3175 32.5307 27.2429 32.936C27.1735 33.336 27.0509 33.7013 26.8749 34.032C26.6989 34.3573 26.4535 34.6533 26.1389 34.92C25.8242 35.1813 25.4269 35.4187 24.9469 35.632L24.0909 34.824C24.4749 34.6853 24.8082 34.5333 25.0909 34.368C25.3735 34.2027 25.6029 34 25.7789 33.76C25.9602 33.52 26.0935 33.2293 26.1789 32.888C26.2695 32.5413 26.3149 32.12 26.3149 31.624V29.496C26.3149 29.336 26.3095 29.192 26.2989 29.064C26.2882 28.936 26.2775 28.832 26.2669 28.752H27.4109C27.4002 28.832 27.3869 28.936 27.3709 29.064C27.3602 29.192 27.3549 29.336 27.3549 29.496V31.584ZM24.4669 28.824C24.4562 28.8987 24.4455 29 24.4349 29.128C24.4242 29.2507 24.4189 29.392 24.4189 29.552V32.408C24.4189 32.5253 24.4215 32.64 24.4269 32.752C24.4322 32.8587 24.4375 32.9547 24.4429 33.04C24.4482 33.1253 24.4509 33.1947 24.4509 33.248H23.3309C23.3415 33.1947 23.3495 33.128 23.3549 33.048C23.3602 32.9627 23.3655 32.864 23.3709 32.752C23.3762 32.64 23.3789 32.5253 23.3789 32.408V29.544C23.3789 29.4267 23.3735 29.3093 23.3629 29.192C23.3575 29.0693 23.3469 28.9467 23.3309 28.824H24.4669ZM21.8349 30.264C21.8829 30.2747 21.9495 30.2853 22.0349 30.296C22.1202 30.3067 22.2189 30.3173 22.3309 30.328C22.4429 30.3333 22.5655 30.336 22.6989 30.336H27.9469C28.1602 30.336 28.3335 30.3307 28.4669 30.32C28.6002 30.3093 28.7202 30.296 28.8269 30.28V31.344C28.7415 31.3387 28.6269 31.3333 28.4829 31.328C28.3389 31.3227 28.1629 31.32 27.9549 31.32H22.6989C22.5655 31.32 22.4429 31.3227 22.3309 31.328C22.2242 31.328 22.1282 31.3307 22.0429 31.336C21.9629 31.3413 21.8935 31.3467 21.8349 31.352V30.264ZM30.4129 31.296C30.5089 31.3013 30.6315 31.3093 30.7809 31.32C30.9302 31.3253 31.0849 31.3307 31.2449 31.336C31.4102 31.3413 31.5622 31.344 31.7009 31.344C31.8342 31.344 31.9995 31.344 32.1969 31.344C32.3942 31.344 32.6075 31.344 32.8369 31.344C33.0715 31.344 33.3115 31.344 33.5569 31.344C33.8075 31.344 34.0555 31.344 34.3009 31.344C34.5462 31.344 34.7782 31.344 34.9969 31.344C35.2155 31.344 35.4102 31.344 35.5809 31.344C35.7569 31.344 35.8955 31.344 35.9969 31.344C36.1835 31.344 36.3595 31.3387 36.5249 31.328C36.6902 31.312 36.8262 31.3013 36.9329 31.296V32.552C36.8422 32.5467 36.7062 32.5387 36.5249 32.528C36.3435 32.5173 36.1675 32.512 35.9969 32.512C35.8955 32.512 35.7569 32.512 35.5809 32.512C35.4049 32.512 35.2075 32.512 34.9889 32.512C34.7702 32.512 34.5382 32.512 34.2929 32.512C34.0529 32.512 33.8075 32.512 33.5569 32.512C33.3062 32.512 33.0635 32.512 32.8289 32.512C32.5995 32.512 32.3862 32.512 32.1889 32.512C31.9969 32.512 31.8342 32.512 31.7009 32.512C31.4715 32.512 31.2369 32.5173 30.9969 32.528C30.7569 32.5333 30.5622 32.5413 30.4129 32.552V31.296ZM13.719 39.36H21.127V40.408H13.719V39.36ZM23.945 40.824V41.08H27.185V40.824H23.945ZM23.945 41.56V41.832H27.185V41.56H23.945ZM23.945 40.088V40.344H27.185V40.088H23.945ZM23.041 39.584H28.129V42.328H23.041V39.584ZM25.921 42.072H26.857V42.68C26.857 42.776 26.881 42.8373 26.929 42.864C26.977 42.8853 27.081 42.896 27.241 42.896C27.2783 42.896 27.3397 42.896 27.425 42.896C27.5103 42.896 27.601 42.896 27.697 42.896C27.7983 42.896 27.8943 42.896 27.985 42.896C28.0757 42.896 28.145 42.896 28.193 42.896C28.2783 42.896 28.3423 42.88 28.385 42.848C28.433 42.816 28.4677 42.7547 28.489 42.664C28.5157 42.5733 28.5317 42.432 28.537 42.24C28.6277 42.2987 28.753 42.3573 28.913 42.416C29.073 42.4747 29.2143 42.5147 29.337 42.536C29.305 42.8293 29.2517 43.056 29.177 43.216C29.1023 43.376 28.9957 43.4853 28.857 43.544C28.7183 43.608 28.529 43.64 28.289 43.64C28.2463 43.64 28.185 43.64 28.105 43.64C28.0303 43.64 27.9423 43.64 27.841 43.64C27.745 43.64 27.649 43.64 27.553 43.64C27.457 43.64 27.369 43.64 27.289 43.64C27.2143 43.64 27.1583 43.64 27.121 43.64C26.801 43.64 26.553 43.6107 26.377 43.552C26.2063 43.4933 26.0863 43.3947 26.017 43.256C25.953 43.1173 25.921 42.928 25.921 42.688V42.072ZM24.153 42.144H25.097C25.049 42.3733 24.969 42.5787 24.857 42.76C24.7503 42.936 24.593 43.0853 24.385 43.208C24.177 43.336 23.8997 43.4427 23.553 43.528C23.2063 43.6133 22.7717 43.68 22.249 43.728C22.217 43.6213 22.1583 43.496 22.073 43.352C21.993 43.208 21.913 43.0907 21.833 43C22.281 42.9787 22.6463 42.9467 22.929 42.904C23.217 42.856 23.441 42.8 23.601 42.736C23.7663 42.672 23.889 42.592 23.969 42.496C24.0543 42.4 24.1157 42.2827 24.153 42.144ZM26.369 38.432H29.033V39.168H26.369V38.432ZM26.433 36.984H29.233V37.72H26.433V36.984ZM26.393 36.192L27.249 36.392C27.1317 36.8027 26.977 37.2027 26.785 37.592C26.5983 37.9813 26.3957 38.3067 26.177 38.568C26.1237 38.52 26.0517 38.4667 25.961 38.408C25.8703 38.344 25.777 38.2827 25.681 38.224C25.5903 38.1653 25.5077 38.1173 25.433 38.08C25.6463 37.8507 25.8357 37.568 26.001 37.232C26.1717 36.896 26.3023 36.5493 26.393 36.192ZM23.681 36.712H24.449V37.472H23.681V36.712ZM23.681 38.232H24.449V38.992H23.681V38.232ZM22.729 37.256H25.481V38.552H22.729V38.048H24.649V37.76H22.729V37.256ZM25.593 36.464V37H23.113V38.848H25.721V39.376H22.257V36.464H25.593Z" fill="black"/>
</svg>
